# xmcd
#
# Track frame offsets:
#	150
#	19055
#	39967
#	56468
#	72678
#	87608
#	106608
#	121773
#	135778
#	153828
#	171575
#	190775
#	217610
#
# Disc length: 3674 seconds
#
# Revision: 5
# Processed by: cddbd v1.5.1PL0 Copyright (c) Steve Scherf et al.
# Submitted via: dBpowerAMP V4.0
#
DISCID=a00e580d
DTITLE=Alabama - Twentieth Century
DYEAR=1900
DGENRE=country
TTITLE0=Twentieth Century
TTITLE1=God Must Have Spent A Little More Time On You
TTITLE2=I'm In That Kind Of Mood
TTITLE3=We Made Love
TTITLE4=Life's Too Short To Love This Fast
TTITLE5=Then We Remember
TTITLE6=Little Things
TTITLE7=Mist Of Desire
TTITLE8=Small Stuff
TTITLE9=Too Much Love
TTITLE10=Write It Down In Blue
TTITLE11=I Love You Enough To Let You Go
TTITLE12=DATA
EXTD=
EXTT0=
EXTT1=
EXTT2=
EXTT3=
EXTT4=
EXTT5=
EXTT6=
EXTT7=
EXTT8=
EXTT9=
EXTT10=
EXTT11=
EXTT12=
PLAYORDER=
